<?xml version="1.0" encoding="utf-8"?>
<!-- Generator: Adobe Illustrator 22.1.0, SVG Export Plug-In . SVG Version: 6.00 Build 0)  -->
<svg version="1.1" xmlns="http://www.w3.org/2000/svg" xmlns:xlink="http://www.w3.org/1999/xlink" x="0px" y="0px"
	 viewBox="0 0 70 100" style="enable-background:new 0 0 70 100;" xml:space="preserve">
<style type="text/css">
	.st0{clip-path:url(#SVGID_2_);fill:url(#SVGID_3_);}
	.st1{clip-path:url(#SVGID_5_);fill:url(#SVGID_6_);}
	.st2{clip-path:url(#SVGID_5_);fill:url(#SVGID_7_);}
	.st3{clip-path:url(#SVGID_5_);fill:url(#SVGID_8_);}
	.st4{clip-path:url(#SVGID_5_);fill:url(#SVGID_9_);}
	.st5{clip-path:url(#SVGID_5_);fill:url(#SVGID_10_);}
	.st6{clip-path:url(#SVGID_5_);fill:url(#SVGID_11_);}
	.st7{clip-path:url(#SVGID_5_);fill:url(#SVGID_12_);}
	.st8{clip-path:url(#SVGID_5_);fill:url(#SVGID_13_);}
	.st9{clip-path:url(#SVGID_5_);fill:url(#SVGID_14_);}
	.st10{clip-path:url(#SVGID_5_);fill:url(#SVGID_15_);}
	.st11{clip-path:url(#SVGID_5_);fill:url(#SVGID_16_);}
	.st12{clip-path:url(#SVGID_5_);fill:url(#SVGID_17_);}
	.st13{clip-path:url(#SVGID_5_);fill:url(#SVGID_18_);}
	.st14{clip-path:url(#SVGID_5_);fill:url(#SVGID_19_);}
	.st15{clip-path:url(#SVGID_5_);fill:url(#SVGID_20_);}
	.st16{clip-path:url(#SVGID_5_);fill:url(#SVGID_21_);}
	.st17{clip-path:url(#SVGID_5_);fill:url(#SVGID_22_);}
	.st18{clip-path:url(#SVGID_5_);fill:url(#SVGID_23_);}
	.st19{clip-path:url(#SVGID_5_);fill:url(#SVGID_24_);}
	.st20{clip-path:url(#SVGID_5_);fill:url(#SVGID_25_);}
	.st21{clip-path:url(#SVGID_5_);fill:url(#SVGID_26_);}
	.st22{clip-path:url(#SVGID_5_);fill:url(#SVGID_27_);}
	.st23{clip-path:url(#SVGID_5_);fill:url(#SVGID_28_);}
	.st24{clip-path:url(#SVGID_5_);fill:url(#SVGID_29_);}
	.st25{clip-path:url(#SVGID_5_);fill:url(#SVGID_30_);}
	.st26{clip-path:url(#SVGID_5_);fill:url(#SVGID_31_);}
	.st27{clip-path:url(#SVGID_5_);fill:url(#SVGID_32_);}
	.st28{clip-path:url(#SVGID_5_);fill:url(#SVGID_33_);}
	.st29{clip-path:url(#SVGID_5_);fill:url(#SVGID_34_);}
	.st30{clip-path:url(#SVGID_5_);fill:url(#SVGID_35_);}
	.st31{clip-path:url(#SVGID_5_);fill:url(#SVGID_36_);}
	.st32{clip-path:url(#SVGID_5_);fill:url(#SVGID_37_);}
	.st33{clip-path:url(#SVGID_5_);fill:url(#SVGID_38_);}
	.st34{clip-path:url(#SVGID_5_);fill:url(#SVGID_39_);}
	.st35{clip-path:url(#SVGID_5_);fill:url(#SVGID_40_);}
	.st36{clip-path:url(#SVGID_5_);fill:url(#SVGID_41_);}
	.st37{clip-path:url(#SVGID_5_);fill:url(#SVGID_42_);}
	.st38{clip-path:url(#SVGID_5_);fill:url(#SVGID_43_);}
	.st39{clip-path:url(#SVGID_5_);fill:url(#SVGID_44_);}
	.st40{clip-path:url(#SVGID_5_);fill:url(#SVGID_45_);}
	.st41{clip-path:url(#SVGID_5_);fill:url(#SVGID_46_);}
	.st42{clip-path:url(#SVGID_5_);fill:url(#SVGID_47_);}
	.st43{clip-path:url(#SVGID_5_);fill:url(#SVGID_48_);}
	.st44{clip-path:url(#SVGID_5_);fill:url(#SVGID_49_);}
	.st45{clip-path:url(#SVGID_5_);fill:url(#SVGID_50_);}
	.st46{clip-path:url(#SVGID_5_);fill:url(#SVGID_51_);}
	.st47{clip-path:url(#SVGID_5_);fill:url(#SVGID_52_);}
	.st48{clip-path:url(#SVGID_5_);fill:url(#SVGID_53_);}
	.st49{clip-path:url(#SVGID_5_);fill:url(#SVGID_54_);}
	.st50{clip-path:url(#SVGID_5_);fill:url(#SVGID_55_);}
	.st51{clip-path:url(#SVGID_5_);fill:url(#SVGID_56_);}
	.st52{clip-path:url(#SVGID_5_);fill:url(#SVGID_57_);}
	.st53{clip-path:url(#SVGID_5_);fill:url(#SVGID_58_);}
	.st54{clip-path:url(#SVGID_5_);fill:url(#SVGID_59_);}
	.st55{clip-path:url(#SVGID_5_);fill:url(#SVGID_60_);}
	.st56{clip-path:url(#SVGID_5_);fill:url(#SVGID_61_);}
	.st57{clip-path:url(#SVGID_5_);fill:url(#SVGID_62_);}
	.st58{clip-path:url(#SVGID_5_);fill:url(#SVGID_63_);}
	.st59{clip-path:url(#SVGID_5_);fill:url(#SVGID_64_);}
	.st60{clip-path:url(#SVGID_66_);}
	.st61{opacity:0;}
	.st62{opacity:2.439024e-02;}
	.st63{opacity:4.878049e-02;}
	.st64{opacity:7.317073e-02;}
	.st65{opacity:9.756097e-02;}
	.st66{opacity:0.122;}
	.st67{opacity:0.1463;}
	.st68{opacity:0.1707;}
	.st69{opacity:0.1951;}
	.st70{opacity:0.2195;}
	.st71{opacity:0.2439;}
	.st72{opacity:0.2683;}
	.st73{opacity:0.2927;}
	.st74{opacity:0.3171;}
	.st75{opacity:0.3415;}
	.st76{opacity:0.3659;}
	.st77{opacity:0.3902;}
	.st78{opacity:0.4146;}
	.st79{opacity:0.439;}
	.st80{opacity:0.4634;}
	.st81{opacity:0.4878;}
	.st82{opacity:0.5122;}
	.st83{opacity:0.5366;}
	.st84{opacity:0.561;}
	.st85{opacity:0.5854;}
	.st86{opacity:0.6098;}
	.st87{opacity:0.6341;}
	.st88{opacity:0.6585;}
	.st89{opacity:0.6829;}
	.st90{opacity:0.7073;}
	.st91{opacity:0.7317;}
	.st92{opacity:0.7561;}
	.st93{opacity:0.7805;}
	.st94{opacity:0.8049;}
	.st95{opacity:0.8293;}
	.st96{opacity:0.8537;}
	.st97{opacity:0.878;}
	.st98{opacity:0.9024;}
	.st99{opacity:0.9268;}
	.st100{opacity:0.9512;}
	.st101{opacity:0.9756;}
	.st102{clip-path:url(#SVGID_66_);fill:url(#SVGID_67_);}
</style>
<g id="Layer_1">
	<g>
		<defs>
			<rect id="SVGID_1_" x="-15" y="15" transform="matrix(-1.346960e-10 1 -1 -1.346960e-10 85 15)" width="100" height="70"/>
		</defs>
		<clipPath id="SVGID_2_">
			<use xlink:href="#SVGID_1_"  style="overflow:visible;"/>
		</clipPath>
		
			<radialGradient id="SVGID_3_" cx="35" cy="50" r="71.7982" gradientTransform="matrix(-1.346898e-10 1 -1 -1.346898e-10 85 15)" gradientUnits="userSpaceOnUse">
			<stop  offset="0" style="stop-color:#EF0000"/>
			<stop  offset="0.1797" style="stop-color:#CA0205"/>
			<stop  offset="0.5816" style="stop-color:#6D0611"/>
			<stop  offset="1" style="stop-color:#060A1F"/>
		</radialGradient>
		<polygon class="st0" points="0,146.6 0,-46.6 70,0 70,100 		"/>
	</g>
</g>
<g id="Layer_2">
	<g>
		<defs>
			<rect id="SVGID_4_" x="-15" y="15" transform="matrix(-1.346960e-10 1 -1 -1.346960e-10 85 15)" width="100" height="70"/>
		</defs>
		<clipPath id="SVGID_5_">
			<use xlink:href="#SVGID_4_"  style="overflow:visible;"/>
		</clipPath>
		
			<linearGradient id="SVGID_6_" gradientUnits="userSpaceOnUse" x1="85.7607" y1="41.7702" x2="106.4751" y2="41.7702" gradientTransform="matrix(-1.346898e-10 1 -1 -1.346898e-10 85 15)">
			<stop  offset="0" style="stop-color:#000000"/>
			<stop  offset="1" style="stop-color:#191D1F"/>
		</linearGradient>
		<path class="st1" d="M49.7,112.8l-7.6-12.1c-1.9,5.5-3.7,10.8-5.4,15.9l1,4.8l11-7.3L49.7,112.8z"/>
		
			<linearGradient id="SVGID_7_" gradientUnits="userSpaceOnUse" x1="-45.5871" y1="56.0038" x2="-34.2117" y2="56.0038" gradientTransform="matrix(-1.346898e-10 1 -1 -1.346898e-10 85 15)">
			<stop  offset="0" style="stop-color:#000000"/>
			<stop  offset="1" style="stop-color:#191D1F"/>
		</linearGradient>
		<path class="st2" d="M34-24l-10-6.6c2.7,3.7,5.5,7.6,8.3,11.4L34-24z"/>
		
			<linearGradient id="SVGID_8_" gradientUnits="userSpaceOnUse" x1="-58.7513" y1="66.8028" x2="-13.7049" y2="66.8028" gradientTransform="matrix(-1.346898e-10 1 -1 -1.346898e-10 85 15)">
			<stop  offset="0" style="stop-color:#000000"/>
			<stop  offset="1" style="stop-color:#191D1F"/>
		</linearGradient>
		<path class="st3" d="M9.1-19.7l16.1,21l6.9-20c-3-4-6.1-8.2-9.2-12.6L4.2-43.8L9.1-19.7z"/>
		
			<linearGradient id="SVGID_9_" gradientUnits="userSpaceOnUse" x1="82.8156" y1="59.2519" x2="117.5158" y2="59.2519" gradientTransform="matrix(-1.346898e-10 1 -1 -1.346898e-10 85 15)">
			<stop  offset="0" style="stop-color:#000000"/>
			<stop  offset="1" style="stop-color:#191D1F"/>
		</linearGradient>
		<path class="st4" d="M36.3,116.8l-3.9-19l-17.2,14.7c2.2,7.6,4.2,14.4,5.9,20l12.7-8.4c0.7-2.1,1.5-4.4,2.3-6.9
			C36.2,117.1,36.2,117,36.3,116.8z"/>
		
			<linearGradient id="SVGID_10_" gradientUnits="userSpaceOnUse" x1="18.6476" y1="80.4793" x2="52.9297" y2="80.4793" gradientTransform="matrix(-1.346898e-10 1 -1 -1.346898e-10 85 15)">
			<stop  offset="0" style="stop-color:#000000"/>
			<stop  offset="1" style="stop-color:#191D1F"/>
		</linearGradient>
		<path class="st5" d="M2.2,67.9L9,48L0,33.6l0,26.9C0.7,63,1.4,65.5,2.2,67.9z"/>
		
			<linearGradient id="SVGID_11_" gradientUnits="userSpaceOnUse" x1="-42.7837" y1="76.3152" x2="32.2116" y2="76.3152" gradientTransform="matrix(-1.346898e-10 1 -1 -1.346898e-10 85 15)">
			<stop  offset="0" style="stop-color:#000000"/>
			<stop  offset="1" style="stop-color:#191D1F"/>
		</linearGradient>
		<polygon class="st6" points="17.4,24 10.9,-7.7 0,-27.8 0,32.3 9.3,47.2 		"/>
		
			<linearGradient id="SVGID_12_" gradientUnits="userSpaceOnUse" x1="102.5498" y1="49.2068" x2="108.7413" y2="49.2068" gradientTransform="matrix(-1.346898e-10 1 -1 -1.346898e-10 85 15)">
			<stop  offset="0" style="stop-color:#000000"/>
			<stop  offset="1" style="stop-color:#191D1F"/>
		</linearGradient>
		<path class="st7" d="M34.3,123.7l3-2l-0.9-4.2C35.7,119.7,35,121.7,34.3,123.7z"/>
		
			<linearGradient id="SVGID_13_" gradientUnits="userSpaceOnUse" x1="-45.6132" y1="79.7315" x2="-24.5605" y2="79.7315" gradientTransform="matrix(-1.346898e-10 1 -1 -1.346898e-10 85 15)">
			<stop  offset="0" style="stop-color:#000000"/>
			<stop  offset="1" style="stop-color:#191D1F"/>
		</linearGradient>
		<polygon class="st8" points="10.5,-9.6 8.5,-19.6 0,-30.6 0,-29.1 		"/>
		
			<linearGradient id="SVGID_14_" gradientUnits="userSpaceOnUse" x1="-61.5623" y1="80.8798" x2="-35.8388" y2="80.8798" gradientTransform="matrix(-1.346898e-10 1 -1 -1.346898e-10 85 15)">
			<stop  offset="0" style="stop-color:#000000"/>
			<stop  offset="1" style="stop-color:#191D1F"/>
		</linearGradient>
		<polygon class="st9" points="3.5,-44.3 0,-46.6 0,-31.6 8.2,-20.8 		"/>
		
			<linearGradient id="SVGID_15_" gradientUnits="userSpaceOnUse" x1="90.0501" y1="31.8552" x2="98.0252" y2="31.8552" gradientTransform="matrix(-1.346898e-10 1 -1 -1.346898e-10 85 15)">
			<stop  offset="0" style="stop-color:#000000"/>
			<stop  offset="1" style="stop-color:#191D1F"/>
		</linearGradient>
		<path class="st10" d="M56.1,105.1l-5.8,7.7l0.2,0.3l4.7-3.1C55.4,108.4,55.7,106.8,56.1,105.1z"/>
		
			<linearGradient id="SVGID_16_" gradientUnits="userSpaceOnUse" x1="-38.6426" y1="46.389" x2="-17.5614" y2="46.389" gradientTransform="matrix(-1.346898e-10 1 -1 -1.346898e-10 85 15)">
			<stop  offset="0" style="stop-color:#000000"/>
			<stop  offset="1" style="stop-color:#191D1F"/>
		</linearGradient>
		<path class="st11" d="M32.7-18.7c4,5.5,8,11,11.7,16.1l-5.8-18.3l-4.2-2.8L32.7-18.7z"/>
		
			<linearGradient id="SVGID_17_" gradientUnits="userSpaceOnUse" x1="40.3655" y1="17.4387" x2="52.715" y2="17.4387" gradientTransform="matrix(-1.346898e-10 1 -1 -1.346898e-10 85 15)">
			<stop  offset="0" style="stop-color:#000000"/>
			<stop  offset="1" style="stop-color:#191D1F"/>
		</linearGradient>
		<path class="st12" d="M66.3,55.4c-0.4,1.9-0.8,3.9-1.2,6l2,6.4l2.9-2.4v-5.2L66.3,55.4z"/>
		
			<linearGradient id="SVGID_18_" gradientUnits="userSpaceOnUse" x1="13.7135" y1="19.7241" x2="39.7048" y2="19.7241" gradientTransform="matrix(-1.346898e-10 1 -1 -1.346898e-10 85 15)">
			<stop  offset="0" style="stop-color:#000000"/>
			<stop  offset="1" style="stop-color:#191D1F"/>
		</linearGradient>
		<path class="st13" d="M66.8,28.7c-1.7,5.1-3.9,11.3-6.2,18.2l0.2,0.6l5.5,7.1c2.2-10.8,3.2-15.9,3.8-18.3v-3.1
			C69.4,32.4,68.3,30.8,66.8,28.7z"/>
		
			<linearGradient id="SVGID_19_" gradientUnits="userSpaceOnUse" x1="22.4603" y1="16.7924" x2="44.6229" y2="16.7924" gradientTransform="matrix(-1.346898e-10 1 -1 -1.346898e-10 85 15)">
			<stop  offset="0" style="stop-color:#000000"/>
			<stop  offset="1" style="stop-color:#191D1F"/>
		</linearGradient>
		<path class="st14" d="M70,59.6V37.5c-0.7,3.5-2,9.7-3.6,17.5L70,59.6z"/>
		
			<linearGradient id="SVGID_20_" gradientUnits="userSpaceOnUse" x1="71.7374" y1="17.1665" x2="85.1181" y2="17.1665" gradientTransform="matrix(-1.346898e-10 1 -1 -1.346898e-10 85 15)">
			<stop  offset="0" style="stop-color:#000000"/>
			<stop  offset="1" style="stop-color:#191D1F"/>
		</linearGradient>
		<polygon class="st15" points="69.8,100.1 70,100 70,86.7 65.7,92.4 		"/>
		
			<linearGradient id="SVGID_21_" gradientUnits="userSpaceOnUse" x1="50.7175" y1="16.3716" x2="61.7" y2="16.3716" gradientTransform="matrix(-1.346898e-10 1 -1 -1.346898e-10 85 15)">
			<stop  offset="0" style="stop-color:#000000"/>
			<stop  offset="1" style="stop-color:#191D1F"/>
		</linearGradient>
		<polygon class="st16" points="70,76.7 70,65.7 67.3,68.1 		"/>
		
			<linearGradient id="SVGID_22_" gradientUnits="userSpaceOnUse" x1="53.2431" y1="19.6467" x2="77.1611" y2="19.6467" gradientTransform="matrix(-1.346898e-10 1 -1 -1.346898e-10 85 15)">
			<stop  offset="0" style="stop-color:#000000"/>
			<stop  offset="1" style="stop-color:#191D1F"/>
		</linearGradient>
		<path class="st17" d="M67,68.2l-4,3.4c-0.8,3.8-1.5,7.6-2.3,11.6l4.8,8.9l4.5-5.9v-8.8L67,68.2z"/>
		
			<linearGradient id="SVGID_23_" gradientUnits="userSpaceOnUse" x1="48.3776" y1="84.1421" x2="59.1539" y2="84.1421" gradientTransform="matrix(-1.346898e-10 1 -1 -1.346898e-10 85 15)">
			<stop  offset="0" style="stop-color:#000000"/>
			<stop  offset="1" style="stop-color:#191D1F"/>
		</linearGradient>
		<path class="st18" d="M0,63.4l0,10.8l1.7-5C1.1,67.3,0.6,65.3,0,63.4z"/>
		
			<linearGradient id="SVGID_24_" gradientUnits="userSpaceOnUse" x1="-20.4922" y1="20.3762" x2="-13.7415" y2="20.3762" gradientTransform="matrix(-1.346898e-10 1 -1 -1.346898e-10 85 15)">
			<stop  offset="0" style="stop-color:#000000"/>
			<stop  offset="1" style="stop-color:#191D1F"/>
		</linearGradient>
		<polygon class="st19" points="67.5,-1.7 61.7,-5.5 65.3,1.3 		"/>
		
			<linearGradient id="SVGID_25_" gradientUnits="userSpaceOnUse" x1="-28.3935" y1="29.8201" x2="-1.4809" y2="29.8201" gradientTransform="matrix(-1.346898e-10 1 -1 -1.346898e-10 85 15)">
			<stop  offset="0" style="stop-color:#000000"/>
			<stop  offset="1" style="stop-color:#191D1F"/>
		</linearGradient>
		<path class="st20" d="M45.2-1.6c0.5,0.7,1,1.4,1.5,2.1c3.7,5,6.8,9.3,9.4,13l9-12l-3.9-7.3l-11.4-7.6L45.2-1.6z"/>
		
			<linearGradient id="SVGID_26_" gradientUnits="userSpaceOnUse" x1="-35.5338" y1="40.6877" x2="-17.2077" y2="40.6877" gradientTransform="matrix(-1.346898e-10 1 -1 -1.346898e-10 85 15)">
			<stop  offset="0" style="stop-color:#000000"/>
			<stop  offset="1" style="stop-color:#191D1F"/>
		</linearGradient>
		<polygon class="st21" points="49.5,-13.6 39.1,-20.5 44.9,-2.2 		"/>
		
			<linearGradient id="SVGID_27_" gradientUnits="userSpaceOnUse" x1="-13.162" y1="21.7805" x2="13.1155" y2="21.7805" gradientTransform="matrix(-1.346898e-10 1 -1 -1.346898e-10 85 15)">
			<stop  offset="0" style="stop-color:#000000"/>
			<stop  offset="1" style="stop-color:#191D1F"/>
		</linearGradient>
		<path class="st22" d="M65.4,1.8l-8.9,12c3.4,4.6,6,8.3,8.1,11.2c0.8,1.2,1.6,2.2,2.2,3c1.3-3.9,2.5-7.1,3.3-9.6v-8L65.4,1.8z"/>
		
			<linearGradient id="SVGID_28_" gradientUnits="userSpaceOnUse" x1="4.3395" y1="16.5488" x2="17.8176" y2="16.5488" gradientTransform="matrix(-1.346898e-10 1 -1 -1.346898e-10 85 15)">
			<stop  offset="0" style="stop-color:#000000"/>
			<stop  offset="1" style="stop-color:#191D1F"/>
		</linearGradient>
		<path class="st23" d="M70,32.8V19.3c-0.8,2.4-1.9,5.4-3.1,9C68.5,30.7,69.5,32,70,32.8z"/>
		
			<linearGradient id="SVGID_29_" gradientUnits="userSpaceOnUse" x1="-16.4598" y1="17.2397" x2="-4.9426" y2="17.2397" gradientTransform="matrix(-1.346898e-10 1 -1 -1.346898e-10 85 15)">
			<stop  offset="0" style="stop-color:#000000"/>
			<stop  offset="1" style="stop-color:#191D1F"/>
		</linearGradient>
		<polygon class="st24" points="70,10.1 70,0 67.8,-1.5 65.5,1.6 		"/>
		
			<linearGradient id="SVGID_30_" gradientUnits="userSpaceOnUse" x1="98.1262" y1="35.2117" x2="98.5981" y2="35.2117" gradientTransform="matrix(-1.346898e-10 1 -1 -1.346898e-10 85 15)">
			<stop  offset="0" style="stop-color:#000000"/>
			<stop  offset="1" style="stop-color:#191D1F"/>
		</linearGradient>
		<polygon class="st25" points="49.6,113.6 50,113.3 49.9,113.1 		"/>
		
			<linearGradient id="SVGID_31_" gradientUnits="userSpaceOnUse" x1="78.4256" y1="47.6245" x2="100.9061" y2="47.6245" gradientTransform="matrix(-1.346898e-10 1 -1 -1.346898e-10 85 15)">
			<stop  offset="0" style="stop-color:#000000"/>
			<stop  offset="1" style="stop-color:#191D1F"/>
		</linearGradient>
		<path class="st26" d="M37.5,93.4l-4.7,4l3.7,18.5c1.6-4.8,3.4-10,5.3-15.5L37.5,93.4z"/>
		
			<linearGradient id="SVGID_32_" gradientUnits="userSpaceOnUse" x1="13.4914" y1="36.3337" x2="53.6235" y2="36.3337" gradientTransform="matrix(-1.346898e-10 1 -1 -1.346898e-10 85 15)">
			<stop  offset="0" style="stop-color:#000000"/>
			<stop  offset="1" style="stop-color:#191D1F"/>
		</linearGradient>
		<path class="st27" d="M37.2,39.8l15.6,28.8c0.4-1.3,0.9-2.5,1.3-3.8c2.1-6.2,4.1-12.1,6-17.5L45.6,28.5L37.2,39.8z"/>
		
			<linearGradient id="SVGID_33_" gradientUnits="userSpaceOnUse" x1="5.2101" y1="31.9529" x2="31.9166" y2="31.9529" gradientTransform="matrix(-1.346898e-10 1 -1 -1.346898e-10 85 15)">
			<stop  offset="0" style="stop-color:#000000"/>
			<stop  offset="1" style="stop-color:#191D1F"/>
		</linearGradient>
		<polygon class="st28" points="45.8,28.2 60.2,46.9 51.7,20.2 		"/>
		
			<linearGradient id="SVGID_34_" gradientUnits="userSpaceOnUse" x1="-0.859" y1="25.7176" x2="31.4731" y2="25.7176" gradientTransform="matrix(-1.346898e-10 1 -1 -1.346898e-10 85 15)">
			<stop  offset="0" style="stop-color:#000000"/>
			<stop  offset="1" style="stop-color:#191D1F"/>
		</linearGradient>
		<path class="st29" d="M60.4,46.5c2.4-6.9,4.5-13,6.2-18c-2.4-3.4-6-8.3-10.4-14.3L52,19.9L60.4,46.5z"/>
		
			<linearGradient id="SVGID_35_" gradientUnits="userSpaceOnUse" x1="-16.0287" y1="40.3873" x2="12.7739" y2="40.3873" gradientTransform="matrix(-1.346898e-10 1 -1 -1.346898e-10 85 15)">
			<stop  offset="0" style="stop-color:#000000"/>
			<stop  offset="1" style="stop-color:#191D1F"/>
		</linearGradient>
		<polygon class="st30" points="45.6,27.8 51.6,19.7 45,-1 37.6,17.5 		"/>
		
			<linearGradient id="SVGID_36_" gradientUnits="userSpaceOnUse" x1="-15.6213" y1="34.2828" x2="4.3909" y2="34.2828" gradientTransform="matrix(-1.346898e-10 1 -1 -1.346898e-10 85 15)">
			<stop  offset="0" style="stop-color:#000000"/>
			<stop  offset="1" style="stop-color:#191D1F"/>
		</linearGradient>
		<path class="st31" d="M56,13.8c-3.1-4.2-6.6-9.1-10.5-14.4l6.4,20L56,13.8z"/>
		
			<linearGradient id="SVGID_37_" gradientUnits="userSpaceOnUse" x1="32.5868" y1="26.066" x2="61.3447" y2="26.066" gradientTransform="matrix(-1.346898e-10 1 -1 -1.346898e-10 85 15)">
			<stop  offset="0" style="stop-color:#000000"/>
			<stop  offset="1" style="stop-color:#191D1F"/>
		</linearGradient>
		<path class="st32" d="M57,76.3l5.9-5c0.7-3.7,1.4-7,2-10l-4.3-13.5l-0.2-0.3C58.1,54.1,55.6,61.4,53,69L57,76.3z"/>
		
			<linearGradient id="SVGID_38_" gradientUnits="userSpaceOnUse" x1="46.8774" y1="19.9583" x2="56.1036" y2="19.9583" gradientTransform="matrix(-1.346898e-10 1 -1 -1.346898e-10 85 15)">
			<stop  offset="0" style="stop-color:#000000"/>
			<stop  offset="1" style="stop-color:#191D1F"/>
		</linearGradient>
		<path class="st33" d="M66.9,67.9l-1.9-6c-0.6,2.9-1.2,6-1.9,9.2L66.9,67.9z"/>
		
			<linearGradient id="SVGID_39_" gradientUnits="userSpaceOnUse" x1="33.5271" y1="21.4017" x2="45.868" y2="21.4017" gradientTransform="matrix(-1.346898e-10 1 -1 -1.346898e-10 85 15)">
			<stop  offset="0" style="stop-color:#000000"/>
			<stop  offset="1" style="stop-color:#191D1F"/>
		</linearGradient>
		<path class="st34" d="M66.1,55.1l-5.1-6.6L65,60.9C65.4,58.8,65.8,56.9,66.1,55.1z"/>
		
			<linearGradient id="SVGID_40_" gradientUnits="userSpaceOnUse" x1="10.2331" y1="68.5123" x2="47.8356" y2="68.5123" gradientTransform="matrix(-1.346898e-10 1 -1 -1.346898e-10 85 15)">
			<stop  offset="0" style="stop-color:#000000"/>
			<stop  offset="1" style="stop-color:#191D1F"/>
		</linearGradient>
		<polygon class="st35" points="23.2,52.5 17.6,25.2 9.8,48 19.1,62.8 		"/>
		
			<linearGradient id="SVGID_41_" gradientUnits="userSpaceOnUse" x1="50.8907" y1="72.9756" x2="74.5014" y2="72.9756" gradientTransform="matrix(-1.346898e-10 1 -1 -1.346898e-10 85 15)">
			<stop  offset="0" style="stop-color:#000000"/>
			<stop  offset="1" style="stop-color:#191D1F"/>
		</linearGradient>
		<path class="st36" d="M6.2,81.7c0.8,2.6,1.5,5.3,2.3,7.8l9.4-23.6L6.2,81.7z"/>
		
			<linearGradient id="SVGID_42_" gradientUnits="userSpaceOnUse" x1="33.7875" y1="74.3515" x2="65.8779" y2="74.3515" gradientTransform="matrix(-1.346898e-10 1 -1 -1.346898e-10 85 15)">
			<stop  offset="0" style="stop-color:#000000"/>
			<stop  offset="1" style="stop-color:#191D1F"/>
		</linearGradient>
		<path class="st37" d="M18.8,63.6L9.5,48.8l-7,20.3C3.7,73,4.8,77,6,80.9l12.8-17.1L18.8,63.6z"/>
		
			<linearGradient id="SVGID_43_" gradientUnits="userSpaceOnUse" x1="49.1729" y1="64.4718" x2="96.8957" y2="64.4718" gradientTransform="matrix(-1.346898e-10 1 -1 -1.346898e-10 85 15)">
			<stop  offset="0" style="stop-color:#000000"/>
			<stop  offset="1" style="stop-color:#191D1F"/>
		</linearGradient>
		<path class="st38" d="M28.6,79.2l-9.4-15L8.8,90.5c2.2,7.5,4.3,14.8,6.3,21.4l17.2-14.6L28.6,79.2z"/>
		
			<linearGradient id="SVGID_44_" gradientUnits="userSpaceOnUse" x1="56.9173" y1="25.0536" x2="67.9079" y2="25.0536" gradientTransform="matrix(-1.346898e-10 1 -1 -1.346898e-10 85 15)">
			<stop  offset="0" style="stop-color:#000000"/>
			<stop  offset="1" style="stop-color:#191D1F"/>
		</linearGradient>
		<path class="st39" d="M60.5,82.9c0.7-3.6,1.5-7.2,2.2-10.8c0-0.1,0-0.1,0-0.2l-5.6,4.8L60.5,82.9z"/>
		
			<linearGradient id="SVGID_45_" gradientUnits="userSpaceOnUse" x1="-20.8624" y1="68.2695" x2="7.9235" y2="68.2695" gradientTransform="matrix(-1.346898e-10 1 -1 -1.346898e-10 85 15)">
			<stop  offset="0" style="stop-color:#000000"/>
			<stop  offset="1" style="stop-color:#191D1F"/>
		</linearGradient>
		<polygon class="st40" points="11.9,-5.9 17.7,22.9 21.6,11.9 		"/>
		
			<linearGradient id="SVGID_46_" gradientUnits="userSpaceOnUse" x1="-33.502" y1="67.8083" x2="-3.7538" y2="67.8083" gradientTransform="matrix(-1.346898e-10 1 -1 -1.346898e-10 85 15)">
			<stop  offset="0" style="stop-color:#000000"/>
			<stop  offset="1" style="stop-color:#191D1F"/>
		</linearGradient>
		<polygon class="st41" points="25,1.8 9.3,-18.5 11.5,-7.7 21.8,11.2 		"/>
		
			<linearGradient id="SVGID_47_" gradientUnits="userSpaceOnUse" x1="-2.3544" y1="60.0942" x2="36.599" y2="60.0942" gradientTransform="matrix(-1.346898e-10 1 -1 -1.346898e-10 85 15)">
			<stop  offset="0" style="stop-color:#000000"/>
			<stop  offset="1" style="stop-color:#191D1F"/>
		</linearGradient>
		<polygon class="st42" points="31.8,30.8 22,12.6 18,24.2 23.6,51.6 		"/>
		
			<linearGradient id="SVGID_48_" gradientUnits="userSpaceOnUse" x1="-33.1857" y1="49.8068" x2="2.0226" y2="49.8068" gradientTransform="matrix(-1.346898e-10 1 -1 -1.346898e-10 85 15)">
			<stop  offset="0" style="stop-color:#000000"/>
			<stop  offset="1" style="stop-color:#191D1F"/>
		</linearGradient>
		<path class="st43" d="M37.3,17l7.4-18.6C41-6.7,36.9-12.3,32.6-18.2L25.7,1.9L37.3,17z"/>
		
			<linearGradient id="SVGID_49_" gradientUnits="userSpaceOnUse" x1="97.9835" y1="74.7364" x2="131.5623" y2="74.7364" gradientTransform="matrix(-1.346898e-10 1 -1 -1.346898e-10 85 15)">
			<stop  offset="0" style="stop-color:#000000"/>
			<stop  offset="1" style="stop-color:#191D1F"/>
		</linearGradient>
		<path class="st44" d="M14.6,113L0,125.5l0,21.1l20.5-13.7c-0.1-0.3-0.2-0.6-0.3-0.9C18.8,126.9,16.9,120.6,14.6,113z"/>
		
			<linearGradient id="SVGID_50_" gradientUnits="userSpaceOnUse" x1="-12.5846" y1="55.3508" x2="15.2346" y2="55.3508" gradientTransform="matrix(-1.346898e-10 1 -1 -1.346898e-10 85 15)">
			<stop  offset="0" style="stop-color:#000000"/>
			<stop  offset="1" style="stop-color:#191D1F"/>
		</linearGradient>
		<polygon class="st45" points="25.5,2.4 22.2,12 32,30.2 37.1,17.5 		"/>
		
			<linearGradient id="SVGID_51_" gradientUnits="userSpaceOnUse" x1="77.7203" y1="22.5205" x2="94.7119" y2="22.5205" gradientTransform="matrix(-1.346898e-10 1 -1 -1.346898e-10 85 15)">
			<stop  offset="0" style="stop-color:#000000"/>
			<stop  offset="1" style="stop-color:#191D1F"/>
		</linearGradient>
		<path class="st46" d="M56.4,104.6c-0.3,1.7-0.7,3.5-1,5.1l14.2-9.4l-4.1-7.6L56.4,104.6z"/>
		
			<linearGradient id="SVGID_52_" gradientUnits="userSpaceOnUse" x1="2.9466" y1="46.1646" x2="24.308" y2="46.1646" gradientTransform="matrix(-1.346898e-10 1 -1 -1.346898e-10 85 15)">
			<stop  offset="0" style="stop-color:#000000"/>
			<stop  offset="1" style="stop-color:#191D1F"/>
		</linearGradient>
		<polygon class="st47" points="37,39.3 45.3,28.1 37.5,17.9 32.4,30.8 		"/>
		
			<linearGradient id="SVGID_53_" gradientUnits="userSpaceOnUse" x1="16.3964" y1="54.7958" x2="41.0631" y2="54.7958" gradientTransform="matrix(-1.346898e-10 1 -1 -1.346898e-10 85 15)">
			<stop  offset="0" style="stop-color:#000000"/>
			<stop  offset="1" style="stop-color:#191D1F"/>
		</linearGradient>
		<polygon class="st48" points="24.5,56.1 36.7,39.7 32.1,31.4 23.8,52.6 		"/>
		
			<linearGradient id="SVGID_54_" gradientUnits="userSpaceOnUse" x1="55.3913" y1="82.3081" x2="73.8583" y2="82.3081" gradientTransform="matrix(-1.346898e-10 1 -1 -1.346898e-10 85 15)">
			<stop  offset="0" style="stop-color:#000000"/>
			<stop  offset="1" style="stop-color:#191D1F"/>
		</linearGradient>
		<path class="st49" d="M5.4,81.6c-1.1-3.7-2.2-7.5-3.3-11.2l-2.1,6l0,12.5L5.4,81.6z"/>
		
			<linearGradient id="SVGID_55_" gradientUnits="userSpaceOnUse" x1="67.4196" y1="80.983" x2="95.8279" y2="80.983" gradientTransform="matrix(-1.346898e-10 1 -1 -1.346898e-10 85 15)">
			<stop  offset="0" style="stop-color:#000000"/>
			<stop  offset="1" style="stop-color:#191D1F"/>
		</linearGradient>
		<path class="st50" d="M7.5,88.8c-0.6-2.1-1.2-4.2-1.9-6.3L0,90l0,20.8l8-20.2C7.9,90,7.7,89.4,7.5,88.8z"/>
		
			<linearGradient id="SVGID_56_" gradientUnits="userSpaceOnUse" x1="38.5286" y1="62.974" x2="46.9955" y2="62.974" gradientTransform="matrix(-1.346898e-10 1 -1 -1.346898e-10 85 15)">
			<stop  offset="0" style="stop-color:#000000"/>
			<stop  offset="1" style="stop-color:#191D1F"/>
		</linearGradient>
		<polygon class="st51" points="24,56.7 23.4,53.5 20,62 		"/>
		
			<linearGradient id="SVGID_57_" gradientUnits="userSpaceOnUse" x1="76.5949" y1="77.7695" x2="109.6619" y2="77.7695" gradientTransform="matrix(-1.346898e-10 1 -1 -1.346898e-10 85 15)">
			<stop  offset="0" style="stop-color:#000000"/>
			<stop  offset="1" style="stop-color:#191D1F"/>
		</linearGradient>
		<path class="st52" d="M14.5,112.4c-1.8-6.1-3.8-13-6.1-20.8l-8.3,21l0,12L14.5,112.4z"/>
		
			<linearGradient id="SVGID_58_" gradientUnits="userSpaceOnUse" x1="70.282" y1="42.4787" x2="84.7407" y2="42.4787" gradientTransform="matrix(-1.346898e-10 1 -1 -1.346898e-10 85 15)">
			<stop  offset="0" style="stop-color:#000000"/>
			<stop  offset="1" style="stop-color:#191D1F"/>
		</linearGradient>
		<path class="st53" d="M42.1,99.7c1.6-4.6,3.2-9.4,5-14.5L38,93.1L42.1,99.7z"/>
		
			<linearGradient id="SVGID_59_" gradientUnits="userSpaceOnUse" x1="65.4636" y1="51.6507" x2="81.9005" y2="51.6507" gradientTransform="matrix(-1.346898e-10 1 -1 -1.346898e-10 85 15)">
			<stop  offset="0" style="stop-color:#000000"/>
			<stop  offset="1" style="stop-color:#191D1F"/>
		</linearGradient>
		<polygon class="st54" points="37.3,93 29.4,80.5 32.7,96.9 		"/>
		
			<linearGradient id="SVGID_60_" gradientUnits="userSpaceOnUse" x1="61.9273" y1="33.6115" x2="97.4159" y2="33.6115" gradientTransform="matrix(-1.346898e-10 1 -1 -1.346898e-10 85 15)">
			<stop  offset="0" style="stop-color:#000000"/>
			<stop  offset="1" style="stop-color:#191D1F"/>
		</linearGradient>
		<path class="st55" d="M47.6,84.9c-1.7,5.1-3.5,10.2-5.2,15.3l7.7,12.3l6.2-8.1c1.2-6,2.7-13.4,4.2-20.9l-3.5-6.5L47.6,84.9z"/>
		
			<linearGradient id="SVGID_61_" gradientUnits="userSpaceOnUse" x1="42.3924" y1="61.0796" x2="62.5599" y2="61.0796" gradientTransform="matrix(-1.346898e-10 1 -1 -1.346898e-10 85 15)">
			<stop  offset="0" style="stop-color:#000000"/>
			<stop  offset="1" style="stop-color:#191D1F"/>
		</linearGradient>
		<polygon class="st56" points="28.3,77.6 24.2,57.4 19.6,63.6 		"/>
		
			<linearGradient id="SVGID_62_" gradientUnits="userSpaceOnUse" x1="68.7935" y1="24.0653" x2="88.8718" y2="24.0653" gradientTransform="matrix(-1.346898e-10 1 -1 -1.346898e-10 85 15)">
			<stop  offset="0" style="stop-color:#000000"/>
			<stop  offset="1" style="stop-color:#191D1F"/>
		</linearGradient>
		<path class="st57" d="M65.3,92.5l-4.7-8.7c-1.3,6.7-2.7,13.5-4,20.1L65.3,92.5z"/>
		
			<linearGradient id="SVGID_63_" gradientUnits="userSpaceOnUse" x1="25.1959" y1="46.3823" x2="77.6768" y2="46.3823" gradientTransform="matrix(-1.346898e-10 1 -1 -1.346898e-10 85 15)">
			<stop  offset="0" style="stop-color:#000000"/>
			<stop  offset="1" style="stop-color:#191D1F"/>
		</linearGradient>
		<path class="st58" d="M37.7,92.7l9.6-8.2c1.7-5,3.5-10.1,5.3-15.4L36.9,40.2L24.6,56.8l4.5,22L37.7,92.7z"/>
		
			<linearGradient id="SVGID_64_" gradientUnits="userSpaceOnUse" x1="54.4985" y1="32.7331" x2="69.0819" y2="32.7331" gradientTransform="matrix(-1.346898e-10 1 -1 -1.346898e-10 85 15)">
			<stop  offset="0" style="stop-color:#000000"/>
			<stop  offset="1" style="stop-color:#191D1F"/>
		</linearGradient>
		<path class="st59" d="M52.8,69.5c-1.6,4.8-3.3,9.6-5,14.6l8.8-7.5L52.8,69.5z"/>
	</g>
</g>
<g id="Layer_4">
	<g>
		<defs>
			<rect id="SVGID_65_" x="-15" y="15" transform="matrix(-1.346960e-10 1 -1 -1.346960e-10 85 15)" width="100" height="70"/>
		</defs>
		<clipPath id="SVGID_66_">
			<use xlink:href="#SVGID_65_"  style="overflow:visible;"/>
		</clipPath>
		<g class="st60">
			<polygon class="st61" points="78.2,32.8 78.2,-14 35,-39 -8.2,-14 -8.2,32.8 35,60.7 			"/>
			<polygon class="st62" points="78.2,32.8 78.2,-14.1 35,-39 -8.2,-14.1 -8.2,32.8 35,60.6 			"/>
			<polygon class="st63" points="78.2,32.8 78.2,-14.2 35,-39.1 -8.2,-14.2 -8.2,32.8 35,60.6 			"/>
			<polygon class="st64" points="78.2,32.8 78.2,-14.3 35,-39.2 -8.2,-14.3 -8.2,32.8 35,60.5 			"/>
			<polygon class="st65" points="78.2,32.8 78.2,-14.3 35,-39.3 -8.2,-14.3 -8.2,32.8 35,60.4 			"/>
			<polygon class="st66" points="78.2,32.8 78.2,-14.4 35,-39.3 -8.2,-14.4 -8.2,32.8 35,60.3 			"/>
			<polygon class="st67" points="78.2,32.8 78.2,-14.5 35,-39.4 -8.2,-14.5 -8.2,32.8 35,60.3 			"/>
			<polygon class="st68" points="78.2,32.8 78.2,-14.6 35,-39.5 -8.2,-14.6 -8.2,32.8 35,60.2 			"/>
			<polygon class="st69" points="78.2,32.8 78.2,-14.6 35,-39.5 -8.2,-14.6 -8.2,32.8 35,60.1 			"/>
			<polygon class="st70" points="78.2,32.8 78.2,-14.7 35,-39.6 -8.2,-14.7 -8.2,32.8 35,60 			"/>
			<polygon class="st71" points="78.2,32.8 78.2,-14.8 35,-39.7 -8.2,-14.8 -8.2,32.8 35,60 			"/>
			<polygon class="st72" points="78.2,32.8 78.2,-14.9 35,-39.8 -8.2,-14.9 -8.2,32.8 35,59.9 			"/>
			<polygon class="st73" points="78.2,32.8 78.2,-14.9 35,-39.8 -8.2,-14.9 -8.2,32.8 35,59.8 			"/>
			<polygon class="st74" points="78.2,32.8 78.2,-15 35,-39.9 -8.2,-15 -8.2,32.8 35,59.8 			"/>
			<polygon class="st75" points="78.2,32.8 78.2,-15.1 35,-40 -8.2,-15.1 -8.2,32.8 35,59.7 			"/>
			<polygon class="st76" points="78.2,32.8 78.2,-15.1 35,-40.1 -8.2,-15.1 -8.2,32.8 35,59.6 			"/>
			<polygon class="st77" points="78.2,32.8 78.2,-15.2 35,-40.1 -8.2,-15.2 -8.2,32.8 35,59.5 			"/>
			<polygon class="st78" points="78.2,32.8 78.2,-15.3 35,-40.2 -8.2,-15.3 -8.2,32.8 35,59.5 			"/>
			<polygon class="st79" points="78.2,32.8 78.2,-15.4 35,-40.3 -8.2,-15.4 -8.2,32.8 35,59.4 			"/>
			<polygon class="st80" points="78.2,32.8 78.2,-15.4 35,-40.4 -8.2,-15.4 -8.2,32.8 35,59.3 			"/>
			<polygon class="st81" points="78.2,32.8 78.2,-15.5 35,-40.4 -8.2,-15.5 -8.2,32.8 35,59.2 			"/>
			<polygon class="st82" points="78.2,32.8 78.2,-15.6 35,-40.5 -8.2,-15.6 -8.2,32.8 35,59.2 			"/>
			<polygon class="st83" points="78.2,32.8 78.2,-15.7 35,-40.6 -8.2,-15.7 -8.2,32.8 35,59.1 			"/>
			<polygon class="st84" points="78.2,32.8 78.2,-15.7 35,-40.6 -8.2,-15.7 -8.2,32.8 35,59 			"/>
			<polygon class="st85" points="78.2,32.8 78.2,-15.8 35,-40.7 -8.2,-15.8 -8.2,32.8 35,58.9 			"/>
			<polygon class="st86" points="78.2,32.8 78.2,-15.9 35,-40.8 -8.2,-15.9 -8.2,32.8 35,58.9 			"/>
			<polygon class="st87" points="78.2,32.8 78.2,-15.9 35,-40.9 -8.2,-15.9 -8.2,32.8 35,58.8 			"/>
			<polygon class="st88" points="78.2,32.8 78.2,-16 35,-40.9 -8.2,-16 -8.2,32.8 35,58.7 			"/>
			<polygon class="st89" points="78.2,32.8 78.2,-16.1 35,-41 -8.2,-16.1 -8.2,32.8 35,58.7 			"/>
			<polygon class="st90" points="78.2,32.8 78.2,-16.2 35,-41.1 -8.2,-16.2 -8.2,32.8 35,58.6 			"/>
			<polygon class="st91" points="78.2,32.8 78.2,-16.2 35,-41.2 -8.2,-16.2 -8.2,32.8 35,58.5 			"/>
			<polygon class="st92" points="78.2,32.8 78.2,-16.3 35,-41.2 -8.2,-16.3 -8.2,32.8 35,58.4 			"/>
			<polygon class="st93" points="78.2,32.8 78.2,-16.4 35,-41.3 -8.2,-16.4 -8.2,32.8 35,58.4 			"/>
			<polygon class="st94" points="78.2,32.8 78.2,-16.5 35,-41.4 -8.2,-16.5 -8.2,32.8 35,58.3 			"/>
			<polygon class="st95" points="78.2,32.8 78.2,-16.5 35,-41.5 -8.2,-16.5 -8.2,32.8 35,58.2 			"/>
			<polygon class="st96" points="78.2,32.8 78.2,-16.6 35,-41.5 -8.2,-16.6 -8.2,32.8 35,58.1 			"/>
			<polygon class="st97" points="78.2,32.8 78.2,-16.7 35,-41.6 -8.2,-16.7 -8.2,32.8 35,58.1 			"/>
			<polygon class="st98" points="78.2,32.8 78.2,-16.8 35,-41.7 -8.2,-16.8 -8.2,32.8 35,58 			"/>
			<polygon class="st99" points="78.2,32.8 78.2,-16.8 35,-41.7 -8.2,-16.8 -8.2,32.8 35,57.9 			"/>
			<polygon class="st100" points="78.2,32.8 78.2,-16.9 35,-41.8 -8.2,-16.9 -8.2,32.8 35,57.8 			"/>
			<polygon class="st101" points="78.2,32.8 78.2,-17 35,-41.9 -8.2,-17 -8.2,32.8 35,57.8 			"/>
			<polygon points="78.2,32.8 78.2,-17 35,-42 -8.2,-17 -8.2,32.8 35,57.7 			"/>
		</g>
		
			<linearGradient id="SVGID_67_" gradientUnits="userSpaceOnUse" x1="-56.9643" y1="50" x2="42.7029" y2="50" gradientTransform="matrix(-1.346898e-10 1 -1 -1.346898e-10 85 15)">
			<stop  offset="0" style="stop-color:#000000"/>
			<stop  offset="0.3678" style="stop-color:#060707"/>
			<stop  offset="0.9085" style="stop-color:#16191B"/>
			<stop  offset="1" style="stop-color:#191D1F"/>
		</linearGradient>
		<polygon class="st102" points="78.2,32.8 78.2,-17 35,-42 -8.2,-17 -8.2,32.8 35,57.7 		"/>
	</g>
</g>
<g id="Layer_3">
</g>
</svg>
