<?xml version="1.0" encoding="utf-8"?>
<!-- Generator: Adobe Illustrator 23.0.6, SVG Export Plug-In . SVG Version: 6.00 Build 0)  -->
<svg version="1.1" id="Layer_1" xmlns="http://www.w3.org/2000/svg" xmlns:xlink="http://www.w3.org/1999/xlink" x="0px" y="0px"
	 viewBox="0 0 297 116.3" style="enable-background:new 0 0 297 116.3;" xml:space="preserve">
<style type="text/css">
	.st0{fill:#FFFFFF;}
	.st1{fill:#E80000;}
</style>
<g>
	<g>
		<path class="st0" d="M113.7,8.9c-0.8-1.4-2.1-2.1-3.9-2.1c-10.6,0-21.2,0.1-31.8,0c-2.7,0-4.3,1-5.5,3.3
			c-2.7,4.8-5.5,9.6-8.3,14.4c-1.2,2-2.3,4.1-3.5,6.1c-0.1,0.2-0.2,0.3-0.4,0.4c-0.1-0.1-0.3-0.2-0.4-0.4c-1.2-2-2.3-4.1-3.5-6.1
			c-2.8-4.8-5.6-9.6-8.3-14.4c-1.2-2.3-2.8-3.3-5.5-3.3c-10.6,0.1-21.2,0-31.8,0c-1.7,0-3,0.7-3.9,2.1c-0.8,1.5-0.7,3,0.2,4.5
			c1.2,2,2.4,4.1,3.6,6.1c3.3,5.7,6.5,11.4,9.8,17c3.4,6,6.9,11.9,10.4,17.9c3.1,5.3,6.2,10.7,9.3,16c0.8,1.5,2.1,2.2,3.8,2.1
			s2.8-0.9,3.6-2.4s1.6-2.9,2.5-4.3c2.7-4.8,5.5-9.5,8.3-14.3c0.6-1.1,1.3-2.1,2-3.3c0.7,1.2,1.3,2.3,2,3.3
			c2.8,4.8,5.5,9.5,8.3,14.3c0.8,1.4,1.7,2.9,2.5,4.3s2,2.3,3.6,2.4c1.7,0.1,3-0.7,3.8-2.1c3.1-5.3,6.2-10.7,9.3-16
			c3.5-6,6.9-11.9,10.4-17.9c3.3-5.7,6.5-11.4,9.8-17c1.2-2.1,2.4-4.1,3.6-6.1C114.4,11.9,114.5,10.4,113.7,8.9z M55.3,40.5
			C52.2,46,49,51.4,45.9,56.8c-0.6,1-1.2,2.1-2,3.3c-8.7-15-17.2-29.9-25.9-44.9c0.5,0,0.8-0.1,1.1-0.1c7.1,0,14.1,0,21.2-0.1
			c0.8,0,1.2,0.2,1.6,0.9c3.8,6.6,7.6,13.2,11.4,19.8c0.6,1.1,1.3,2.2,1.9,3.3C55.5,39.4,55.5,40.1,55.3,40.5z M76.9,60.1
			c-0.7-1.3-1.4-2.3-2-3.3c-3.1-5.4-6.3-10.9-9.4-16.3c-0.2-0.4-0.2-1,0-1.4c0.6-1.1,1.3-2.2,1.9-3.3C71.2,29.2,75,22.6,78.8,16
			c0.4-0.7,0.8-0.9,1.6-0.9c7.1,0,14.1,0,21.2,0.1c0.3,0,0.7,0,1.1,0.1C94.1,30.2,85.5,45.1,76.9,60.1z"/>
	</g>
</g>
<g>
	<g>
		<path class="st0" d="M119.2,20.5h-4.6l-24.2,42h12.1l3-7.4h16.1l3,7.4H137L119.2,20.5z M108.8,46.1l4.7-11.8l4.6,11.8H108.8z"/>
		<path class="st0" d="M155.8,63.3c-3.3,0-6.3-0.5-9-1.6c-2.8-1.1-5.1-2.5-7.2-4.4c-2-1.9-3.6-4.2-4.8-6.8s-1.7-5.5-1.7-8.7v-0.1
			c0-3,0.6-5.8,1.7-8.5c1.1-2.6,2.7-4.9,4.6-6.9c2-2,4.3-3.5,7.1-4.6s5.7-1.7,8.9-1.7c3.7,0,6.9,0.5,9.5,1.6
			c2.7,1.1,5.1,2.6,7.3,4.5l-6.8,8.1c-1.5-1.3-3-2.2-4.6-2.9c-1.6-0.7-3.4-1-5.4-1c-1.5,0-2.9,0.3-4.2,0.9s-2.4,1.4-3.4,2.4
			s-1.7,2.2-2.3,3.6c-0.6,1.4-0.8,2.9-0.8,4.5v0.1c0,1.7,0.3,3.2,0.8,4.6c0.6,1.4,1.3,2.6,2.4,3.7c1,1,2.2,1.8,3.6,2.4
			c1.4,0.6,2.9,0.9,4.6,0.9c2.7,0,4.9-0.6,6.7-1.7v-5.1h-8.2v-8.4h19.2v18.7c-2.2,1.8-4.8,3.4-7.9,4.6
			C163.1,62.7,159.6,63.3,155.8,63.3z"/>
		<path class="st0" d="M177.2,20.8h33.4v9.8h-22.1v6.3h20V46h-20v6.6h22.4v9.8h-33.7V20.8z"/>
		<path class="st0" d="M214.8,20.8h19.7c3.2,0,5.9,0.4,8.1,1.2c2.2,0.8,4,1.9,5.4,3.3c2.5,2.4,3.7,5.6,3.7,9.7v0.1
			c0,3.2-0.8,5.9-2.3,8s-3.6,3.7-6.2,4.8l9.9,14.5h-13.3l-8.4-12.6h-0.1h-4.9v12.6h-11.5L214.8,20.8L214.8,20.8z M234,40.8
			c2,0,3.5-0.4,4.6-1.3c1.1-0.9,1.6-2.1,1.6-3.6v-0.1c0-1.7-0.6-2.9-1.7-3.7c-1.1-0.8-2.6-1.2-4.6-1.2h-7.6v10h7.7V40.8z"/>
	</g>
</g>
<path class="st1" d="M279.4,48.5c2.6-1.1,4.7-2.7,6.2-4.8s2.3-4.8,2.3-8v-0.1c0-4.1-1.2-7.3-3.7-9.7c-1.4-1.4-3.2-2.5-5.4-3.3
	c-2.2-0.8-4.9-1.2-8.1-1.2H251v2.3c1.1,0.6,2.1,1.4,2.9,2.2c2.5,2.4,3.7,5.6,3.7,9.7v0.1c0,3.2-0.8,5.9-2.3,8
	c-1.1,1.5-2.6,2.8-4.3,3.8v3.8l8,11.7h3.6V50.4h5.1L276,63h13.3L279.4,48.5z M276.3,36.4c0,1.5-0.5,2.7-1.6,3.6
	c-1.1,0.9-2.6,1.3-4.6,1.3h-7.6v-10h7.6c1.9,0,3.5,0.4,4.6,1.2c1.1,0.8,1.7,2.1,1.7,3.7v0.2H276.3z"/>
<g>
	<path class="st0" d="M80.8,84.5h10.4c1.3,0,2.4,0.2,3.3,0.5s1.7,0.8,2.3,1.4c0.4,0.4,0.7,0.9,1,1.4s0.3,1.2,0.3,1.9v0.1
		c0,1.2-0.3,2.1-0.9,2.9c-0.6,0.7-1.3,1.3-2.2,1.7c1.2,0.4,2.2,1,3,1.8c0.7,0.8,1.1,1.8,1.1,3.2v0.1c0,1.8-0.7,3.1-2,4.1
		c-1.3,1-3.2,1.5-5.7,1.5H80.8V84.5z M89.8,92.6c0.9,0,1.5-0.1,2-0.4c0.5-0.3,0.7-0.7,0.7-1.3v-0.1c0-0.6-0.2-1-0.6-1.3
		c-0.4-0.3-1.1-0.5-1.9-0.5h-3.7v3.6H89.8z M90.6,100.3c0.9,0,1.5-0.2,2-0.5c0.5-0.3,0.7-0.8,0.7-1.4v-0.1c0-0.6-0.2-1-0.7-1.3
		c-0.4-0.3-1.1-0.5-2.1-0.5h-4.3v3.7H90.6z"/>
	<path class="st0" d="M107.3,84.5h9.6c1.6,0,2.9,0.2,4,0.6c1.1,0.4,2,0.9,2.6,1.6c1.2,1.2,1.8,2.7,1.8,4.7v0.1
		c0,1.6-0.4,2.9-1.1,3.9s-1.8,1.8-3,2.3l4.8,7.1h-6.5l-4.1-6.1h-0.1h-2.4v6.1h-5.6V84.5z M116.6,94.2c1,0,1.7-0.2,2.2-0.7
		c0.5-0.4,0.8-1,0.8-1.8v-0.1c0-0.8-0.3-1.4-0.8-1.8c-0.5-0.4-1.3-0.6-2.2-0.6h-3.7v4.9H116.6z"/>
	<path class="st0" d="M134.1,84.5h5.7v20.3h-5.7V84.5z"/>
	<path class="st0" d="M149.2,84.5h7.8c1.8,0,3.4,0.2,4.9,0.7c1.4,0.5,2.6,1.2,3.6,2.1c1,0.9,1.7,1.9,2.2,3.2c0.5,1.2,0.8,2.6,0.8,4
		v0.1c0,1.5-0.3,2.8-0.8,4.1c-0.5,1.2-1.3,2.3-2.3,3.2c-1,0.9-2.2,1.6-3.6,2.1c-1.4,0.5-3.1,0.8-4.9,0.8h-7.7V84.5z M157.2,99.8
		c1.7,0,3-0.4,4.1-1.3c1-0.9,1.5-2.2,1.5-3.8v-0.1c0-1.6-0.5-2.9-1.5-3.8c-1-0.9-2.4-1.3-4.1-1.3h-2.3v10.3H157.2z"/>
	<path class="st0" d="M187.6,105.2c-1.6,0-3.1-0.3-4.4-0.8c-1.3-0.5-2.5-1.2-3.5-2.2c-1-0.9-1.8-2-2.3-3.3c-0.6-1.3-0.8-2.7-0.8-4.2
		v-0.1c0-1.5,0.3-2.8,0.8-4.1s1.3-2.4,2.3-3.4c1-1,2.1-1.7,3.5-2.2s2.8-0.8,4.4-0.8c1.8,0,3.3,0.3,4.7,0.8c1.3,0.5,2.5,1.2,3.6,2.2
		l-3.3,4c-0.7-0.6-1.5-1.1-2.2-1.4c-0.8-0.3-1.6-0.5-2.7-0.5c-0.7,0-1.4,0.1-2,0.4c-0.6,0.3-1.2,0.7-1.6,1.2
		c-0.5,0.5-0.8,1.1-1.1,1.8c-0.3,0.7-0.4,1.4-0.4,2.2v0.1c0,0.8,0.1,1.6,0.4,2.3c0.3,0.7,0.7,1.3,1.2,1.8c0.5,0.5,1.1,0.9,1.7,1.2
		c0.7,0.3,1.4,0.4,2.2,0.4c1.3,0,2.4-0.3,3.3-0.8V97h-4v-4.1h9.3v9.1c-1.1,0.9-2.4,1.6-3.8,2.2C191.1,104.9,189.4,105.2,187.6,105.2
		z"/>
	<path class="st0" d="M205.3,84.5h16.3v4.8h-10.8v3.1h9.7v4.4h-9.7v3.2h10.9v4.8h-16.4V84.5z"/>
</g>
</svg>
